<?xml version="1.0" encoding="utf-8"?>
<!-- Generator: Adobe Illustrator 18.1.1, SVG Export Plug-In . SVG Version: 6.00 Build 0)  -->
<!DOCTYPE svg PUBLIC "-//W3C//DTD SVG 1.1//EN" "http://www.w3.org/Graphics/SVG/1.1/DTD/svg11.dtd">
<svg version="1.1" xmlns="http://www.w3.org/2000/svg" xmlns:xlink="http://www.w3.org/1999/xlink" x="0px" y="0px" width="238px"
	 height="159px" viewBox="0 0 238 159" enable-background="new 0 0 238 159" xml:space="preserve">
<g id="Blue" display="none">
	<rect display="inline" fill="#0070B8" width="238" height="159"/>
</g>
<g id="Blue_copy" display="none">
	<rect display="inline" fill="#EDF5F8" width="238" height="159"/>
</g>
<g id="Gray">
	<rect fill="#F2F2F2" width="238" height="159"/>
</g>
<g id="Layer_1">
	<rect x="54.8" y="36.2" opacity="0.5" fill="#FFFFFF" width="131" height="84.3"/>
	<g>
		<g>
			<circle fill="#89C33F" cx="61.1" cy="94.9" r="1.8"/>
		</g>
		<g>
			<circle fill="#89C33F" cx="66.5" cy="97.9" r="1.8"/>
		</g>
		<g>
			<circle fill="#89C33F" cx="72" cy="100.9" r="1.8"/>
		</g>
		<g>
			<circle fill="#89C33F" cx="80.7" cy="98.9" r="1.8"/>
		</g>
		<g>
			<circle fill="#89C33F" cx="84.2" cy="93.9" r="1.8"/>
		</g>
		<g>
			<circle fill="#89C33F" cx="87.8" cy="88.9" r="1.8"/>
		</g>
		<g>
			<circle fill="#89C33F" cx="91.4" cy="84" r="1.8"/>
		</g>
		<g>
			<circle fill="#89C33F" cx="94.9" cy="79" r="1.8"/>
		</g>
		<g>
			<circle fill="#89C33F" cx="98.5" cy="74" r="1.8"/>
		</g>
		<g>
			<circle fill="#89C33F" cx="106.8" cy="73.2" r="1.8"/>
		</g>
		<g>
			<circle fill="#89C33F" cx="101.8" cy="69.2" r="1.8"/>
		</g>
		<g>
			<circle fill="#89C33F" cx="111.2" cy="77.5" r="1.8"/>
		</g>
		<g>
			<circle fill="#89C33F" cx="115.6" cy="81.8" r="1.8"/>
		</g>
		<g>
			<circle fill="#89C33F" cx="120" cy="86" r="1.8"/>
		</g>
		<g>
			<circle fill="#89C33F" cx="124.4" cy="90.3" r="1.8"/>
		</g>
		<g>
			<circle fill="#89C33F" cx="133.4" cy="90.7" r="1.8"/>
		</g>
		<g>
			<circle fill="#89C33F" cx="128.4" cy="93.7" r="1.8"/>
		</g>
		<g>
			<circle fill="#89C33F" cx="138.5" cy="86.8" r="1.8"/>
		</g>
		<g>
			<circle fill="#89C33F" cx="143.5" cy="83" r="1.8"/>
		</g>
		<g>
			<circle fill="#89C33F" cx="148.5" cy="79.1" r="1.8"/>
		</g>
		<g>
			<circle fill="#89C33F" cx="152.5" cy="76.1" r="1.8"/>
		</g>
		<g>
			<circle fill="#89C33F" cx="157.9" cy="77.6" r="1.8"/>
		</g>
		<g>
			<circle fill="#89C33F" cx="163.7" cy="79.7" r="1.8"/>
		</g>
		<g>
			<circle fill="#89C33F" cx="169.5" cy="81.9" r="1.8"/>
		</g>
		<g>
			<circle fill="#89C33F" cx="173.5" cy="76.9" r="1.8"/>
		</g>
	</g>
	<path fill="#3AA0CC" d="M54.7,84.6c-0.4-0.3-0.6-0.9-0.3-1.4c0.2-0.3,0.5-0.5,0.8-0.5c0.2,0,0.3,0,0.5,0.1l21.9,13.7l20.6-16.8
		l7,6.5l3.3-4.3l7.9,6.1l30.8-22.6l21.4,12.7l9.4-12.1c0.2-0.2,0.4-0.4,0.7-0.4c0.1,0,0.4,0,0.6,0.2c0.4,0.3,0.5,1,0.1,1.4L169,80.8
		l-21.7-12.8l-30.9,22.7l-7.6-5.9l-3.4,4.4L98,82.4L77.6,98.9L54.7,84.6z"/>
	<path fill="#71B1D1" d="M53,122V37.8c0-0.8,0.7-1.5,1.5-1.5s1.5,0.7,1.5,1.5V119h128.3c0.8,0,1.5,0.7,1.5,1.5s-0.7,1.5-1.5,1.5H53z
		"/>
</g>
</svg>
